<svg id="visual" viewBox="0 0 900 450" width="900" height="450" xmlns="http://www.w3.org/2000/svg" xmlns:xlink="http://www.w3.org/1999/xlink" version="1.1"><path d="M0 190L30 194.5C60 199 120 208 180 225.2C240 242.3 300 267.7 360 275.3C420 283 480 273 540 247.2C600 221.3 660 179.7 720 169.8C780 160 840 182 870 193L900 204L900 451L870 451C840 451 780 451 720 451C660 451 600 451 540 451C480 451 420 451 360 451C300 451 240 451 180 451C120 451 60 451 30 451L0 451Z" fill="#FF7C57" stroke-linecap="round" stroke-linejoin="miter"></path></svg>