<svg width="208" height="94" viewBox="0 0 208 94" fill="none" xmlns="http://www.w3.org/2000/svg">
<g clip-path="url(#clip0_20_277)">
<path d="M45.2271 41.1147C42.6704 38.7605 39.0842 37.5669 34.4023 37.5669C31.8455 37.5669 29.4548 37.9316 27.2964 38.6279C25.1381 39.3242 23.3783 40.2195 21.9836 41.2473C21.1203 41.9436 20.4562 42.7062 19.9913 43.502C19.5265 44.2978 19.294 45.3256 19.294 46.5856V70.127C19.294 72.017 19.6925 73.3433 20.5226 74.0727C21.3527 74.8022 22.6477 75.1669 24.4408 75.1669C25.3041 75.1669 26.1343 75.1006 26.898 74.9348C27.6617 74.769 28.2594 74.6695 28.6911 74.5701V48.6082C29.4216 48.144 30.2849 47.7792 31.2146 47.4477C32.1444 47.1161 33.1737 46.9503 34.3359 46.9503C35.9629 46.9503 37.2247 47.4145 38.1877 48.3098C39.1506 49.205 39.6155 50.6307 39.6155 52.5207V70.127C39.6155 72.017 40.014 73.3433 40.8441 74.0727C41.6742 74.8022 42.9692 75.1669 44.7623 75.1669C45.692 75.1669 46.5221 75.1006 47.2859 74.9348C48.0496 74.769 48.6141 74.6695 49.0125 74.5701V51.2607C49.0125 46.8508 47.7507 43.4688 45.1939 41.1147H45.2271Z" fill="#2B50A2"/>
<path d="M59.5385 73.6085C61.8628 74.6695 64.5524 75.2001 67.6073 75.2001C70.0977 75.2001 72.3556 74.9016 74.3811 74.338C76.4066 73.7743 78.1001 72.9785 79.4615 71.9838C80.3912 71.387 81.0221 70.6575 81.4206 69.7955C81.8191 68.9334 82.0183 67.9055 82.0183 66.7119V42.6399C82.0183 40.6836 81.6198 39.3574 80.8229 38.6611C80.026 37.9648 78.6978 37.6001 76.8715 37.6001C76.0082 37.6001 75.1781 37.6664 74.3811 37.799C73.5842 37.9316 73.0197 38.0643 72.6213 38.1969V64.5235C72.2228 64.8219 71.6251 65.1203 70.795 65.3856C69.9649 65.6508 68.9355 65.7835 67.7069 65.7835C65.781 65.7835 64.32 65.253 63.2575 64.1919C62.1949 63.1309 61.6968 61.4399 61.6968 59.0858V42.6068C61.6968 40.6505 61.2984 39.3242 60.4682 38.6279C59.6381 37.9316 58.3431 37.5669 56.55 37.5669C55.6203 37.5669 54.7902 37.6332 54.0265 37.7658C53.2628 37.8985 52.6983 38.0311 52.2998 38.1637V60.0473C52.2998 63.562 52.9307 66.4135 54.1925 68.6681C55.4543 70.8896 57.2474 72.5475 59.5717 73.6085H59.5385Z" fill="#2B50A2"/>
<path d="M125.849 38.8932C123.923 38.0311 121.798 37.5669 119.54 37.5669C116.884 37.5669 114.626 38.0311 112.799 38.9595C111.538 39.5895 110.375 40.3189 109.28 41.1147C108.184 40.0537 106.889 39.2247 105.461 38.6611C103.635 37.9316 101.676 37.5669 99.5837 37.5669C97.359 37.5669 95.2007 37.8985 93.1088 38.5948C91.0168 39.2579 89.257 40.1531 87.8624 41.2805C86.999 41.9768 86.3349 42.7394 85.8701 43.5351C85.4052 44.3309 85.1728 45.3588 85.1728 46.6187V70.1602C85.1728 72.0501 85.5712 73.3764 86.4013 74.1059C87.2315 74.8353 88.5265 75.2001 90.3195 75.2001C91.1829 75.2001 92.013 75.1337 92.7767 74.968C93.5404 74.8022 94.1381 74.7027 94.5698 74.6032V48.575C95.1011 48.2103 95.732 47.8787 96.5289 47.514C97.3258 47.1493 98.2223 46.9835 99.2185 46.9835C100.58 46.9835 101.709 47.3814 102.605 48.2103C103.535 49.0392 103.967 50.3323 103.967 52.0896V70.127C103.967 72.017 104.365 73.3433 105.195 74.0727C106.026 74.8022 107.32 75.1669 109.114 75.1669C109.977 75.1669 110.807 75.1006 111.571 74.9348C112.334 74.769 112.932 74.6695 113.364 74.5701V50.7302C113.364 50.1334 113.297 49.5697 113.231 49.006C113.795 48.5087 114.426 48.0445 115.19 47.6798C116.12 47.2156 117.116 46.9503 118.179 46.9503C119.573 46.9503 120.702 47.3482 121.532 48.1771C122.396 49.006 122.794 50.2992 122.794 52.0565V70.0939C122.794 71.9838 123.192 73.3101 124.023 74.0396C124.853 74.769 126.148 75.1337 127.941 75.1337C128.804 75.1337 129.634 75.0674 130.398 74.9016C131.162 74.7359 131.759 74.6364 132.191 74.5369V50.7634C132.191 47.6135 131.593 45.0604 130.431 43.1041C129.269 41.1478 127.708 39.7221 125.749 38.86L125.849 38.8932Z" fill="#2B50A2"/>
<path d="M169.879 56.3006C169.879 60.2131 169.148 63.562 167.654 66.3803C166.193 69.1987 164.101 71.3539 161.411 72.8791C158.722 74.4043 155.567 75.1669 151.915 75.1669C148.262 75.1669 145.174 74.4043 142.485 72.9123C139.795 71.4202 137.703 69.2318 136.209 66.4135C134.715 63.562 133.951 60.2131 133.951 56.3006C133.951 52.3881 134.715 49.1387 136.242 46.3535C137.769 43.5683 139.861 41.4131 142.551 39.8879C145.241 38.3627 148.395 37.6001 151.981 37.6001C155.567 37.6001 158.655 38.3627 161.345 39.8879C164.035 41.4131 166.127 43.6015 167.621 46.3867C169.115 49.205 169.879 52.5207 169.879 56.3006ZM151.915 46.9835C149.624 46.9835 147.831 47.8124 146.502 49.4371C145.174 51.095 144.51 53.3828 144.51 56.3006C144.51 59.2184 145.174 61.7052 146.469 63.3299C147.764 64.9546 149.59 65.7504 151.915 65.7504C154.239 65.7504 156.132 64.9214 157.427 63.2967C158.722 61.6389 159.386 59.3179 159.386 56.3006C159.386 53.2833 158.722 51.1281 157.394 49.4703C156.065 47.8124 154.239 46.9835 151.915 46.9835Z" fill="#F79830"/>
<path d="M205.242 46.3867C203.748 43.5683 201.656 41.4131 198.966 39.8879C196.277 38.3627 193.155 37.6001 189.603 37.6001C186.05 37.6001 182.862 38.3627 180.172 39.8879C177.483 41.4131 175.391 43.5683 173.863 46.3535C172.336 49.1387 171.572 52.4544 171.572 56.3006C171.572 60.1468 172.336 63.562 173.83 66.4135C175.324 69.265 177.416 71.4202 180.106 72.9123C182.795 74.4043 185.95 75.1669 189.536 75.1669C193.122 75.1669 196.376 74.4043 199.033 72.8791C201.722 71.3539 203.781 69.1655 205.275 66.3803C206.736 63.562 207.5 60.2131 207.5 56.3006C207.5 52.3881 206.736 49.205 205.242 46.3867ZM195.081 63.3299C193.786 64.9878 191.927 65.7835 189.569 65.7835C187.212 65.7835 185.419 64.9878 184.124 63.3631C182.829 61.7384 182.165 59.3842 182.165 56.3338C182.165 53.2833 182.829 51.095 184.157 49.4703C185.485 47.8124 187.278 47.0167 189.569 47.0167C191.86 47.0167 193.72 47.8456 195.048 49.5034C196.376 51.1613 197.04 53.4491 197.04 56.3338C197.04 59.2184 196.376 61.7052 195.081 63.3299Z" fill="#2B50A2"/>
<path d="M27.4625 78.9799C26.6323 78.3831 25.5034 78.0515 24.1088 78.0515C23.4447 78.0515 22.847 78.1178 22.2825 78.2173C21.718 78.3499 21.1867 78.5157 20.7551 78.7146C20.2902 78.9467 20.0577 79.2452 20.0577 79.643C20.0577 79.8088 20.1242 79.9415 20.2238 80.1072C20.3234 80.2399 20.4562 80.3725 20.589 80.5051C21.0539 80.273 21.6184 80.0741 22.2161 79.8751C22.8138 79.6762 23.4779 79.5767 24.142 79.5767C24.9721 79.5767 25.6362 79.7425 26.1343 80.1072C26.6323 80.472 26.8648 81.0356 26.8648 81.8314V82.4945L23.4115 82.8261C22.1497 82.9256 21.1867 83.2572 20.4562 83.7877C19.7589 84.3182 19.3936 85.1139 19.3936 86.1418C19.3936 87.236 19.8253 88.0649 20.6554 88.6617C21.4856 89.2254 22.6809 89.5238 24.2084 89.5238C25.0385 89.5238 25.769 89.4244 26.3999 89.2586C27.064 89.0928 27.5621 88.8938 27.9605 88.6949C28.2262 88.5291 28.4586 88.3633 28.5914 88.1975C28.7243 88.0318 28.7907 87.7665 28.7907 87.4018V81.8314C28.7907 80.5051 28.3922 79.5436 27.5621 78.9467L27.4625 78.9799ZM26.7652 87.4349C26.5659 87.5676 26.2339 87.7002 25.8022 87.8328C25.3705 87.9654 24.8061 88.0318 24.1088 88.0318C23.179 88.0318 22.4485 87.866 21.9836 87.5344C21.5188 87.2028 21.2531 86.7386 21.2531 86.175C21.2531 85.6113 21.4524 85.1803 21.8508 84.8818C22.2493 84.5834 22.8802 84.4177 23.7435 84.3513L26.7652 84.0529V87.4681V87.4349Z" fill="#2B50A2"/>
<path d="M48.4812 79.0131C48.0496 78.7479 47.5183 78.5158 46.9206 78.35C46.2897 78.1842 45.5924 78.0847 44.8619 78.0847C43.7661 78.0847 42.8032 78.2837 41.9731 78.6815C41.1429 79.0794 40.4788 79.6763 39.9808 80.5052C39.5159 81.3009 39.2502 82.2957 39.2502 83.4893C39.2502 84.8156 39.4827 85.8766 39.9808 86.6724C40.4788 87.4681 41.1097 88.0318 41.9066 88.3965C42.7036 88.7613 43.5669 88.927 44.5298 88.927C45.2936 88.927 45.9577 88.8276 46.4557 88.5955C46.821 88.4297 47.153 88.2971 47.3855 88.0981V89.5902C47.3855 90.5517 47.0866 91.2812 46.5221 91.7454C45.9577 92.2096 45.0943 92.4417 44.0318 92.4417C43.3013 92.4417 42.6372 92.3422 42.0063 92.1101C41.3754 91.9112 40.9105 91.6791 40.5452 91.4138C40.3792 91.4801 40.2464 91.6128 40.1468 91.7454C40.0472 91.878 39.9808 92.077 39.9808 92.3091C39.9808 92.7069 40.2132 93.0385 40.7113 93.3038C40.9105 93.4032 41.309 93.569 41.9066 93.7348C42.5043 93.9006 43.2016 94.0001 43.9986 94.0001C44.9947 94.0001 45.9244 93.8674 46.7214 93.569C47.5183 93.2706 48.1492 92.8396 48.6141 92.2096C49.0789 91.5796 49.3114 90.7507 49.3114 89.7228V80.2731C49.3114 79.9747 49.245 79.7426 49.0789 79.5436C48.9129 79.3447 48.7137 79.1789 48.4812 79.0131ZM46.4889 87.0039C46.0573 87.236 45.4596 87.3687 44.7623 87.3687C43.7661 87.3687 42.936 87.0703 42.2719 86.4734C41.6078 85.8766 41.2425 84.8819 41.2425 83.4561C41.2425 82.1962 41.5746 81.2346 42.2387 80.5715C42.9028 79.9415 43.7993 79.6099 44.8619 79.6099C45.4264 79.6099 45.9245 79.6763 46.3229 79.8089C46.7214 79.9415 47.0866 80.1073 47.3523 80.2731V86.374C47.1198 86.6061 46.821 86.805 46.4557 87.0039H46.4889Z" fill="#2B50A2"/>
<path d="M67.9062 78.6815C67.1424 78.2837 66.2791 78.0847 65.283 78.0847C64.486 78.0847 63.7887 78.2173 63.1246 78.4826C62.4605 78.7479 61.8961 79.1126 61.398 79.6099C60.9331 80.1073 60.5346 80.7041 60.269 81.4004C60.0034 82.0967 59.8705 82.8925 59.8705 83.7877C59.8705 85.0477 60.103 86.1087 60.6011 86.9708C61.0991 87.8329 61.7964 88.496 62.7262 88.927C63.6559 89.3581 64.7185 89.5902 65.9803 89.5902C66.7108 89.5902 67.3417 89.5239 67.9062 89.3581C68.4706 89.1923 68.9355 88.9934 69.3008 88.7281C69.666 88.4628 69.832 88.1976 69.832 87.8992C69.832 87.7002 69.7656 87.5345 69.666 87.4018C69.5664 87.2692 69.4336 87.1366 69.2344 87.0039C68.9023 87.2692 68.4706 87.5013 67.9062 87.7002C67.3417 87.9323 66.744 88.0318 66.0467 88.0318C64.7517 88.0318 63.7555 87.7002 63.025 87.0703C62.4273 86.5729 62.0621 85.8434 61.8628 84.9814L69.3672 83.9535C69.666 83.9535 69.8985 83.8209 70.0645 83.6882C70.2305 83.5556 70.2969 83.2904 70.2969 82.9588C70.2969 82.0304 70.0645 81.1683 69.666 80.4389C69.2344 79.7094 68.6367 79.1457 67.873 78.7479L67.9062 78.6815ZM61.7964 83.423C61.8296 82.2293 62.1617 81.3009 62.7926 80.6378C63.4567 79.9415 64.2868 79.5768 65.283 79.5768C66.2791 79.5768 67.0096 79.842 67.5741 80.4057C68.1386 80.9694 68.4374 81.6657 68.5038 82.5278L61.7964 83.3898V83.423Z" fill="#2B50A2"/>
<path d="M89.3566 79.0463C88.4933 78.3831 87.3311 78.0847 85.8701 78.0847C85.0067 78.0847 84.2098 78.1842 83.5125 78.4163C82.8152 78.6152 82.2507 78.8473 81.8191 79.0794C81.487 79.2784 81.2214 79.4773 81.0885 79.7094C80.9557 79.9084 80.8893 80.2068 80.8893 80.5052V88.5292C80.8893 88.8276 80.9889 89.0265 81.155 89.1923C81.321 89.3249 81.5866 89.3912 81.9519 89.3912C82.1511 89.3912 82.3171 89.3912 82.4832 89.3249C82.6492 89.2918 82.782 89.2586 82.8484 89.2255V80.4389C83.2137 80.2399 83.6453 80.041 84.1434 79.9084C84.6415 79.7426 85.2392 79.6763 85.8701 79.6763C86.7334 79.6763 87.4307 79.8752 87.9288 80.2731C88.4269 80.671 88.6925 81.3341 88.6925 82.1962V88.5292C88.6925 88.8276 88.7921 89.0265 88.9581 89.1923C89.1242 89.3249 89.3898 89.3912 89.755 89.3912C89.9211 89.3912 90.1203 89.3912 90.2863 89.3249C90.4524 89.2918 90.5852 89.2586 90.6516 89.2255V82.0967C90.6516 80.7373 90.2199 79.7094 89.3566 79.0794V79.0463Z" fill="#2B50A2"/>
<path d="M109.977 87.1033C109.612 87.3354 109.213 87.5344 108.748 87.7333C108.283 87.8991 107.719 87.9986 107.055 87.9986C105.893 87.9986 104.963 87.6338 104.266 86.9044C103.568 86.1749 103.203 85.1471 103.203 83.8208C103.203 82.4945 103.568 81.4335 104.299 80.704C105.029 79.9746 105.959 79.6098 107.055 79.6098C107.719 79.6098 108.283 79.7093 108.715 79.8751C109.147 80.0409 109.545 80.2398 109.91 80.4719C110.077 80.4056 110.243 80.273 110.342 80.1404C110.442 80.0077 110.508 79.8419 110.508 79.643C110.508 79.212 110.176 78.8472 109.512 78.5157C108.848 78.1841 108.018 78.0183 107.022 78.0183C106.026 78.0183 104.996 78.2504 104.1 78.6814C103.203 79.1125 102.506 79.7425 101.974 80.6045C101.443 81.4666 101.178 82.5277 101.178 83.7876C101.178 85.0476 101.443 86.1418 101.941 86.9707C102.439 87.8328 103.137 88.4628 104.033 88.8606C104.93 89.2917 105.926 89.4906 107.055 89.4906C108.051 89.4906 108.914 89.3248 109.578 89.0264C110.243 88.728 110.608 88.3633 110.608 87.8991C110.608 87.7001 110.541 87.5344 110.442 87.3686C110.342 87.2359 110.176 87.1033 110.01 87.0038L109.977 87.1033Z" fill="#2B50A2"/>
<path d="M131.228 78.3498C131.062 78.2172 130.83 78.1509 130.531 78.1509C130.365 78.1509 130.232 78.1509 130.066 78.2172C129.933 78.2504 129.8 78.2835 129.701 78.3498C129.468 79.3114 129.203 80.3724 128.837 81.4666C128.505 82.5608 128.14 83.6218 127.775 84.5833C127.41 85.578 127.044 86.407 126.712 87.0369H126.613C125.949 85.6444 125.384 84.2849 124.82 82.9918C124.288 81.6987 123.757 80.3724 123.292 79.0793C123.192 78.7477 123.026 78.5156 122.86 78.383C122.694 78.2503 122.462 78.184 122.163 78.184C121.964 78.184 121.765 78.2172 121.565 78.3167C121.366 78.4161 121.233 78.5488 121.101 78.6814C121.466 79.7756 121.864 80.8697 122.296 81.9308C122.694 82.9918 123.126 83.9533 123.491 84.8154C123.89 85.6775 124.222 86.3407 124.487 86.838C124.786 87.3685 125.052 87.7332 125.284 87.9322C125.517 88.1311 125.782 88.2638 126.048 88.3632C125.782 88.8937 125.45 89.4242 125.052 89.9879C124.654 90.5516 124.222 91.0821 123.757 91.5795C123.325 92.0768 122.894 92.4747 122.562 92.7731C122.595 93.0384 122.728 93.2373 122.927 93.4362C123.126 93.6352 123.425 93.7347 123.79 93.7347C124.321 93.7347 124.886 93.3699 125.484 92.6736C126.115 91.9442 126.779 90.9495 127.542 89.59C127.941 88.9269 128.306 88.1643 128.705 87.3354C129.103 86.5064 129.435 85.6444 129.767 84.7823C130.099 83.9202 130.398 83.0913 130.63 82.3287C130.896 81.566 131.095 80.8697 131.228 80.2729C131.361 79.6761 131.461 79.2782 131.461 79.013C131.461 78.7477 131.361 78.5488 131.195 78.4161L131.228 78.3498Z" fill="#2B50A2"/>
<path d="M27.7945 0C17.8662 0 9.7642 8.05714 9.7642 18.0042C9.7642 19.2974 9.89702 20.5905 10.1627 21.8173C10.2955 21.8173 10.4283 21.8173 10.5611 21.7841C10.8268 21.7841 11.0592 21.751 11.3248 21.751C13.0515 21.751 14.7117 22.0825 16.2724 22.7457C15.6747 21.2868 15.3426 19.6952 15.3426 18.0042C15.3426 11.1407 20.9211 5.60353 27.7945 5.60353C34.668 5.60353 40.2132 11.1739 40.2132 18.0042C40.2132 24.8346 34.6347 30.4381 27.7945 30.4381C26.1343 30.4381 24.5072 30.1065 23.0462 29.5097C21.5188 28.8797 20.1242 27.9513 18.9952 26.7908C17.0361 24.8346 14.3133 23.6078 11.3248 23.6078C11.0924 23.6078 10.8932 23.6078 10.6607 23.6078C9.99663 23.6409 9.39894 23.7404 8.76805 23.9062C4.01973 25.0335 0.466797 29.3108 0.466797 34.4169C0.466797 40.3852 5.31473 45.2261 11.2916 45.2261C16.4052 45.2261 20.6886 41.7115 21.8176 36.9369C21.718 36.9369 21.6184 36.8705 21.5188 36.8374C19.7589 36.2737 18.0987 35.4448 16.538 34.3838C16.538 37.3016 14.1805 39.6226 11.2916 39.6226C8.40279 39.6226 6.04524 37.2684 6.04524 34.3838C6.04524 31.4991 8.40279 29.145 11.2916 29.145C12.7526 29.145 14.0476 29.7418 15.0106 30.6702C16.9697 32.6265 19.3937 34.1517 22.1165 35.0469C22.7142 35.2459 23.345 35.4116 23.9759 35.5443C25.2045 35.8095 26.4663 35.9422 27.7613 35.9422C37.7228 35.9422 45.7916 27.885 45.7916 17.9379C45.7916 7.99083 37.756 0 27.7945 0Z" fill="url(#paint0_linear_20_277)"/>
</g>
<defs>
<linearGradient id="paint0_linear_20_277" x1="40.5452" y1="5.27196" x2="3.74104" y2="42.1295" gradientUnits="userSpaceOnUse">
<stop offset="0.32" stop-color="#F79830"/>
<stop offset="0.37" stop-color="#F09533"/>
<stop offset="0.44" stop-color="#DF8F3D"/>
<stop offset="0.51" stop-color="#C2854D"/>
<stop offset="0.6" stop-color="#9A7763"/>
<stop offset="0.69" stop-color="#676580"/>
<stop offset="0.79" stop-color="#2B50A2"/>
</linearGradient>
<clipPath id="clip0_20_277">
<rect width="207" height="94" fill="white" transform="translate(0.5)"/>
</clipPath>
</defs>
</svg>
