<svg xmlns="http://www.w3.org/2000/svg" width="385" height="123" viewBox="0 0 385 123"><g id="ouest_croissance_logo_final" data-name="ouest croissance_logo final" transform="translate(-82.18 -80.89)"><g id="Bleu" fill="#209bd8"><path id="Tracé_1" data-name="Tracé 1" d="M203.29 80.89A37.149 37.149 0 00166.18 118h9.12a27.99 27.99 0 0155.98 0h9.12a37.155 37.155 0 00-37.11-37.11z"/><path id="Tracé_2" data-name="Tracé 2" d="M305.64 164.54h-9.12a27.99 27.99 0 11-55.98 0h-9.12a37.155 37.155 0 0037.11 37.11 37.149 37.149 0 0037.11-37.11z"/><circle id="Ellipse_1" data-name="Ellipse 1" cx="4.54" cy="4.54" r="4.54" transform="translate(297.71 93.06)"/><path id="Tracé_3" data-name="Tracé 3" d="M98.92 156.45a18.449 18.449 0 01-6.69-1.18 15.844 15.844 0 01-5.32-3.31 15.029 15.029 0 01-3.49-5.01 16.523 16.523 0 010-12.56 14.94 14.94 0 013.51-5.01 16.045 16.045 0 015.32-3.31 18.32 18.32 0 016.62-1.18 18.118 18.118 0 016.65 1.18 15.822 15.822 0 015.27 3.31 15.178 15.178 0 014.77 11.29 15.614 15.614 0 01-1.26 6.3 15.025 15.025 0 01-3.51 5.01 16.037 16.037 0 01-5.27 3.29 17.964 17.964 0 01-6.6 1.18zm-.05-6.02a9.846 9.846 0 003.77-.7 8.944 8.944 0 003.03-2 9.175 9.175 0 002.03-3.09 11.305 11.305 0 000-7.94 9.41 9.41 0 00-2-3.09 8.753 8.753 0 00-3.03-2 10.219 10.219 0 00-3.79-.7 9.846 9.846 0 00-3.77.7 9.084 9.084 0 00-5.06 5.09 11.222 11.222 0 000 7.91 9.44 9.44 0 002 3.12 8.753 8.753 0 003.03 2 10.021 10.021 0 003.79.7z"/><path id="Tracé_4" data-name="Tracé 4" d="M130.3 156.27a11.665 11.665 0 01-5.21-1.13 8.017 8.017 0 01-3.55-3.46 12.437 12.437 0 01-1.26-5.95v-13.25h6.8v12.25a6.228 6.228 0 001.24 4.29 4.479 4.479 0 003.51 1.37 5.546 5.546 0 002.79-.68 4.718 4.718 0 001.92-2.09 8.073 8.073 0 00.7-3.55v-11.59h6.8v23.45h-6.45v-6.45l1.18 1.87a8 8 0 01-3.47 3.68 10.351 10.351 0 01-5 1.24z"/><path id="Tracé_5" data-name="Tracé 5" d="M161.98 156.27a15.062 15.062 0 01-7.04-1.57 11.393 11.393 0 01-6.35-10.5 11.89 11.89 0 011.63-6.25 11.545 11.545 0 014.47-4.27 13.984 13.984 0 0112.62-.09 11 11 0 014.38 4.18 12.634 12.634 0 011.61 6.52c0 .26-.02.56-.04.89s-.06.65-.09.94h-19.05v-3.97h15.47l-2.61 1.18a6.553 6.553 0 00-.74-3.18 5.336 5.336 0 00-2.05-2.11 5.927 5.927 0 00-3.05-.76 6.027 6.027 0 00-3.07.76 5.268 5.268 0 00-2.07 2.14 6.809 6.809 0 00-.74 3.25v1.05a6.579 6.579 0 00.85 3.38 5.6 5.6 0 002.4 2.22 8.1 8.1 0 003.64.76 8.751 8.751 0 003.29-.57 7.964 7.964 0 002.59-1.7l3.62 3.92a10.5 10.5 0 01-4.05 2.81 15.041 15.041 0 01-5.62.97z"/><path id="Tracé_6" data-name="Tracé 6" d="M185.74 156.27a22.807 22.807 0 01-5.77-.72 14.117 14.117 0 01-4.38-1.81l2.27-4.88a14.976 14.976 0 003.81 1.63 15.713 15.713 0 004.34.63 7.037 7.037 0 003.33-.57 1.75 1.75 0 00.98-1.57 1.322 1.322 0 00-.76-1.24 6.4 6.4 0 00-2.03-.63c-.84-.14-1.77-.29-2.77-.44a30.514 30.514 0 01-3.03-.59 10.43 10.43 0 01-2.79-1.11 5.719 5.719 0 01-2.03-2 6.233 6.233 0 01-.76-3.27 6.3 6.3 0 011.29-3.92 8.512 8.512 0 013.73-2.68 15.721 15.721 0 015.84-.98 23.484 23.484 0 014.88.52 13.166 13.166 0 014.14 1.53l-2.27 4.84a11.194 11.194 0 00-3.42-1.37 15.651 15.651 0 00-3.33-.37 6.77 6.77 0 00-3.31.61 1.8 1.8 0 00-1.05 1.57 1.413 1.413 0 00.76 1.31 7.124 7.124 0 002.03.7c.84.17 1.77.33 2.77.46a25.683 25.683 0 013.03.59 10.844 10.844 0 012.77 1.11 5.854 5.854 0 012.03 1.96 5.949 5.949 0 01.78 3.25 6.13 6.13 0 01-1.31 3.86 8.587 8.587 0 01-3.77 2.64 17.1 17.1 0 01-6 .94z"/><path id="Tracé_7" data-name="Tracé 7" d="M198.2 138.23V133h16.26v5.23zm12.38 18.04a9.2 9.2 0 01-6.45-2.11q-2.31-2.115-2.31-6.3v-20.57h6.8v20.48a3.162 3.162 0 00.78 2.29 2.826 2.826 0 002.14.81 4.407 4.407 0 002.75-.87l1.83 4.79a7.594 7.594 0 01-2.51 1.11 12.207 12.207 0 01-3.03.37z"/><path id="Tracé_8" data-name="Tracé 8" d="M327.12 181.31a6.863 6.863 0 01-2.62-.49 6.164 6.164 0 01-2.1-1.39 6.418 6.418 0 01-1.38-2.13 7.084 7.084 0 01-.49-2.67 7.011 7.011 0 01.49-2.67 6.29 6.29 0 011.39-2.13 6.363 6.363 0 012.1-1.39 7.276 7.276 0 015.4.06 5.624 5.624 0 012.12 1.62l-1.48 1.47a4.469 4.469 0 00-1.5-1.14 4.3 4.3 0 00-1.8-.38 4.575 4.575 0 00-1.77.33 3.958 3.958 0 00-1.39.95 4.431 4.431 0 00-.92 1.45 5.295 5.295 0 000 3.68 4.273 4.273 0 00.92 1.45 4.194 4.194 0 001.39.95 4.647 4.647 0 001.77.33 4.3 4.3 0 001.8-.38 4.409 4.409 0 001.5-1.16l1.48 1.49a5.727 5.727 0 01-2.12 1.62 7.3 7.3 0 01-2.79.53z"/><path id="Tracé_9" data-name="Tracé 9" d="M336.6 181.25a4.272 4.272 0 01-1.85-.38 2.908 2.908 0 01-1.23-1.06 2.759 2.759 0 01-.43-1.53 2.985 2.985 0 01.38-1.5 2.576 2.576 0 011.24-1.06 5.649 5.649 0 012.29-.39h2.73v1.54h-2.58a2.248 2.248 0 00-1.52.38 1.26 1.26 0 00-.39.94 1.2 1.2 0 00.48 1 2.092 2.092 0 001.32.37 2.774 2.774 0 001.46-.39 2.184 2.184 0 00.93-1.15l.37 1.39a2.514 2.514 0 01-1.14 1.35 3.9 3.9 0 01-2.06.49zm2.96-.13v-2.01l-.12-.43v-3.51a2.115 2.115 0 00-.58-1.59 2.436 2.436 0 00-1.76-.57 4.908 4.908 0 00-1.56.26 3.8 3.8 0 00-1.3.72l-.86-1.69a5.155 5.155 0 011.81-.92 7.92 7.92 0 012.18-.31 4.515 4.515 0 013.17 1.03 4.117 4.117 0 011.12 3.18v5.81h-2.1v.03z"/><path id="Tracé_10" data-name="Tracé 10" d="M344.29 184.73v-13.52h2.1v2.34l-.07 2.64.18 2.64v5.9zm5.22-3.48a4.064 4.064 0 01-2.09-.56 3.861 3.861 0 01-1.5-1.68 6.428 6.428 0 01-.56-2.85 6.571 6.571 0 01.54-2.86 3.748 3.748 0 011.47-1.66 4.169 4.169 0 012.13-.55 4.74 4.74 0 012.46.63 4.543 4.543 0 011.69 1.76 5.994 5.994 0 010 5.35 4.573 4.573 0 01-1.69 1.77 4.509 4.509 0 01-2.45.65zm-.25-1.98a2.711 2.711 0 001.42-.37 2.683 2.683 0 001-1.08 3.886 3.886 0 000-3.31 2.813 2.813 0 00-3.85-1.07 2.678 2.678 0 00-1.01 1.07 3.886 3.886 0 000 3.31 2.639 2.639 0 001.01 1.08 2.845 2.845 0 001.43.37z"/><path id="Tracé_11" data-name="Tracé 11" d="M357.32 169.57a1.349 1.349 0 01-1.01-.41 1.376 1.376 0 01-.4-.98 1.312 1.312 0 01.4-.99 1.341 1.341 0 011.01-.4 1.406 1.406 0 011.01.38 1.282 1.282 0 01.4.96 1.452 1.452 0 01-.39 1.03 1.291 1.291 0 01-1.02.41zm-1.11 11.55v-9.92h2.21v9.92z"/><path id="Tracé_12" data-name="Tracé 12" d="M359.88 173.14v-1.86h6.28v1.86zm4.8 8.11a3.263 3.263 0 01-2.4-.84 3.406 3.406 0 01-.85-2.5v-8.89h2.21v8.84a1.61 1.61 0 00.34 1.1 1.215 1.215 0 00.96.39 1.863 1.863 0 001.23-.41l.62 1.65a2.611 2.611 0 01-.95.5 4.112 4.112 0 01-1.16.16z"/><path id="Tracé_13" data-name="Tracé 13" d="M371.27 181.25a4.272 4.272 0 01-1.85-.38 2.908 2.908 0 01-1.23-1.06 2.759 2.759 0 01-.43-1.53 2.985 2.985 0 01.38-1.5 2.576 2.576 0 011.24-1.06 5.649 5.649 0 012.29-.39h2.73v1.54h-2.58a2.248 2.248 0 00-1.52.38 1.26 1.26 0 00-.39.94 1.2 1.2 0 00.48 1 2.092 2.092 0 001.32.37 2.774 2.774 0 001.46-.39 2.184 2.184 0 00.93-1.15l.37 1.39a2.514 2.514 0 01-1.14 1.35 3.856 3.856 0 01-2.06.49zm2.97-.13v-2.01l-.12-.43v-3.51a2.115 2.115 0 00-.58-1.59 2.436 2.436 0 00-1.76-.57 4.908 4.908 0 00-1.56.26 3.8 3.8 0 00-1.3.72l-.86-1.69a5.155 5.155 0 011.81-.92 7.92 7.92 0 012.18-.31 4.515 4.515 0 013.17 1.03 4.117 4.117 0 011.12 3.18v5.81h-2.1v.03z"/><path id="Tracé_14" data-name="Tracé 14" d="M378.96 181.12v-13.78h2.21v13.78z"/><path id="Tracé_15" data-name="Tracé 15" d="M322.31 189.7a1.349 1.349 0 01-1.01-.41 1.376 1.376 0 01-.4-.98 1.312 1.312 0 01.4-.99 1.341 1.341 0 011.01-.4 1.406 1.406 0 011.01.38 1.282 1.282 0 01.4.96 1.452 1.452 0 01-.39 1.03 1.356 1.356 0 01-1.02.41zm-1.11 11.54v-9.92h2.21v9.92z"/><path id="Tracé_16" data-name="Tracé 16" d="M331.46 191.22a4.418 4.418 0 012.02.46 3.31 3.31 0 011.4 1.42 5.222 5.222 0 01.51 2.46v5.68h-2.21v-5.38a2.88 2.88 0 00-.59-1.97 2.117 2.117 0 00-1.65-.65 2.817 2.817 0 00-1.38.33 2.234 2.234 0 00-.93.99 3.689 3.689 0 00-.33 1.66v5.01h-2.21v-9.92h2.1V194l-.37-.82a3.438 3.438 0 011.44-1.46 4.783 4.783 0 012.2-.5z"/><path id="Tracé_17" data-name="Tracé 17" d="M340.35 201.24l-4.04-9.92h2.29l3.47 8.75h-1.13l3.6-8.75h2.12l-4.04 9.92z"/><path id="Tracé_18" data-name="Tracé 18" d="M352.03 201.37a5.475 5.475 0 01-2.74-.66 4.658 4.658 0 01-1.82-1.81 5.27 5.27 0 01-.64-2.62 5.357 5.357 0 01.63-2.63 4.582 4.582 0 011.73-1.79 4.863 4.863 0 012.51-.65 4.755 4.755 0 012.45.63 4.462 4.462 0 011.69 1.78 5.676 5.676 0 01.62 2.71c0 .1 0 .21-.01.33l-.03.35h-7.85v-1.54h6.68l-.86.48a3.018 3.018 0 00-.33-1.5 2.771 2.771 0 00-.96-1.02 2.616 2.616 0 00-1.4-.37 2.662 2.662 0 00-1.42.37 2.555 2.555 0 00-.95 1.03 3.31 3.31 0 00-.34 1.55v.37a3.164 3.164 0 00.39 1.58 2.651 2.651 0 001.09 1.06 3.4 3.4 0 001.62.37 3.8 3.8 0 001.43-.26 3.064 3.064 0 001.13-.82l1.18 1.43a4.175 4.175 0 01-1.6 1.2 5.176 5.176 0 01-2.2.43z"/><path id="Tracé_19" data-name="Tracé 19" d="M361.31 201.37a8.137 8.137 0 01-2.27-.32 5.759 5.759 0 01-1.72-.79l.85-1.76a6.125 6.125 0 001.52.71 5.723 5.723 0 001.76.28 2.9 2.9 0 001.51-.3.911.911 0 00.47-.8.7.7 0 00-.32-.62 2.564 2.564 0 00-.83-.33c-.34-.07-.72-.14-1.14-.2s-.83-.15-1.25-.25a4.127 4.127 0 01-1.14-.46 2.356 2.356 0 01-.83-.83 2.62 2.62 0 01-.32-1.37 2.69 2.69 0 01.51-1.64 3.348 3.348 0 011.44-1.08 5.851 5.851 0 012.2-.38 8.446 8.446 0 011.92.22 5.3 5.3 0 011.61.63l-.85 1.76a4.377 4.377 0 00-1.35-.58 6.221 6.221 0 00-1.35-.16 2.771 2.771 0 00-1.49.32.947.947 0 00-.49.8.769.769 0 00.32.67 2.36 2.36 0 00.83.35 8.314 8.314 0 001.14.21 10.469 10.469 0 011.24.25 4.775 4.775 0 011.14.46 2.177 2.177 0 01.84.81 2.9 2.9 0 01-.2 2.98 3.43 3.43 0 01-1.47 1.07 6.746 6.746 0 01-2.28.35z"/><path id="Tracé_20" data-name="Tracé 20" d="M366.05 193.26v-1.86h6.28v1.86zm4.8 8.11a3.263 3.263 0 01-2.4-.84 3.406 3.406 0 01-.85-2.5v-8.89h2.21v8.84a1.61 1.61 0 00.34 1.1 1.215 1.215 0 00.96.39 1.863 1.863 0 001.23-.41l.62 1.65a2.611 2.611 0 01-.95.5 4.062 4.062 0 01-1.16.16z"/><path id="Tracé_21" data-name="Tracé 21" d="M375.72 189.7a1.349 1.349 0 01-1.01-.41 1.376 1.376 0 01-.4-.98 1.312 1.312 0 01.4-.99 1.341 1.341 0 011.01-.4 1.406 1.406 0 011.01.38 1.282 1.282 0 01.4.96 1.452 1.452 0 01-.39 1.03 1.356 1.356 0 01-1.02.41zm-1.11 11.54v-9.92h2.21v9.92z"/><path id="Tracé_22" data-name="Tracé 22" d="M382.44 201.37a8.137 8.137 0 01-2.27-.32 5.759 5.759 0 01-1.72-.79l.85-1.76a6.125 6.125 0 001.52.71 5.723 5.723 0 001.76.28 2.9 2.9 0 001.51-.3.911.911 0 00.47-.8.7.7 0 00-.32-.62 2.564 2.564 0 00-.83-.33c-.34-.07-.72-.14-1.14-.2s-.83-.15-1.25-.25a4.127 4.127 0 01-1.14-.46 2.356 2.356 0 01-.83-.83 2.62 2.62 0 01-.32-1.37 2.69 2.69 0 01.51-1.64 3.348 3.348 0 011.44-1.08 5.851 5.851 0 012.2-.38 8.446 8.446 0 011.92.22 5.3 5.3 0 011.61.63l-.85 1.76a4.377 4.377 0 00-1.35-.58 6.221 6.221 0 00-1.35-.16 2.771 2.771 0 00-1.49.32.947.947 0 00-.49.8.769.769 0 00.32.67 2.36 2.36 0 00.83.35 8.314 8.314 0 001.14.21 10.469 10.469 0 011.24.25 4.775 4.775 0 011.14.46 2.177 2.177 0 01.84.81 2.9 2.9 0 01-.2 2.98 3.43 3.43 0 01-1.47 1.07 6.747 6.747 0 01-2.28.35z"/><path id="Tracé_23" data-name="Tracé 23" d="M391.35 201.37a8.137 8.137 0 01-2.27-.32 5.759 5.759 0 01-1.72-.79l.85-1.76a6.125 6.125 0 001.52.71 5.723 5.723 0 001.76.28 2.9 2.9 0 001.51-.3.911.911 0 00.47-.8.7.7 0 00-.32-.62 2.564 2.564 0 00-.83-.33c-.34-.07-.72-.14-1.14-.2s-.83-.15-1.25-.25a4.127 4.127 0 01-1.14-.46 2.356 2.356 0 01-.83-.83 2.62 2.62 0 01-.32-1.37 2.69 2.69 0 01.51-1.64 3.348 3.348 0 011.44-1.08 5.851 5.851 0 012.2-.38 8.446 8.446 0 011.92.22 5.3 5.3 0 011.61.63l-.85 1.76a4.377 4.377 0 00-1.35-.58 6.221 6.221 0 00-1.35-.16 2.771 2.771 0 00-1.49.32.947.947 0 00-.49.8.769.769 0 00.32.67 2.36 2.36 0 00.83.35 8.314 8.314 0 001.14.21 10.469 10.469 0 011.24.25 4.775 4.775 0 011.14.46 2.177 2.177 0 01.84.81 2.9 2.9 0 01-.2 2.98 3.43 3.43 0 01-1.47 1.07 6.747 6.747 0 01-2.28.35z"/><path id="Tracé_24" data-name="Tracé 24" d="M401.77 201.37a5.475 5.475 0 01-2.74-.66 4.658 4.658 0 01-1.82-1.81 5.27 5.27 0 01-.64-2.62 5.357 5.357 0 01.63-2.63 4.582 4.582 0 011.73-1.79 4.863 4.863 0 012.51-.65 4.755 4.755 0 012.45.63 4.462 4.462 0 011.69 1.78 5.676 5.676 0 01.62 2.71c0 .1 0 .21-.01.33l-.03.35h-7.85v-1.54H405l-.86.48a3.018 3.018 0 00-.33-1.5 2.771 2.771 0 00-.96-1.02 2.616 2.616 0 00-1.4-.37 2.662 2.662 0 00-1.42.37 2.555 2.555 0 00-.95 1.03 3.31 3.31 0 00-.34 1.55v.37a3.164 3.164 0 00.39 1.58 2.651 2.651 0 001.09 1.06 3.4 3.4 0 001.62.37 3.8 3.8 0 001.43-.26 3.064 3.064 0 001.13-.82l1.18 1.43a4.175 4.175 0 01-1.6 1.2 5.192 5.192 0 01-2.21.43z"/><path id="Tracé_25" data-name="Tracé 25" d="M420.03 191.22a4.3 4.3 0 012 .46 3.248 3.248 0 011.37 1.42 5.359 5.359 0 01.49 2.46v5.68h-2.21v-5.38a2.988 2.988 0 00-.55-1.97 1.944 1.944 0 00-1.57-.65 2.465 2.465 0 00-1.28.33 2.176 2.176 0 00-.86.98 3.766 3.766 0 00-.31 1.65v5.03h-2.21v-5.38a2.988 2.988 0 00-.55-1.97 1.944 1.944 0 00-1.57-.65 2.465 2.465 0 00-1.28.33 2.176 2.176 0 00-.86.98 3.766 3.766 0 00-.31 1.65v5.03h-2.21v-9.92h2.1v2.64l-.37-.78a3.386 3.386 0 011.38-1.47 4.282 4.282 0 012.07-.5 3.885 3.885 0 012.3.69 3.374 3.374 0 011.3 2.08l-.86-.32a3.753 3.753 0 011.52-1.78 4.808 4.808 0 012.47-.64z"/><path id="Tracé_26" data-name="Tracé 26" d="M430.98 201.37a5.475 5.475 0 01-2.74-.66 4.658 4.658 0 01-1.82-1.81 5.27 5.27 0 01-.64-2.62 5.357 5.357 0 01.63-2.63 4.582 4.582 0 011.73-1.79 4.863 4.863 0 012.51-.65 4.755 4.755 0 012.45.63 4.462 4.462 0 011.69 1.78 5.676 5.676 0 01.62 2.71c0 .1 0 .21-.01.33l-.03.35h-7.85v-1.54h6.68l-.86.48a3.018 3.018 0 00-.33-1.5 2.771 2.771 0 00-.96-1.02 2.616 2.616 0 00-1.4-.37 2.662 2.662 0 00-1.42.37 2.555 2.555 0 00-.95 1.03 3.31 3.31 0 00-.34 1.55v.37a3.164 3.164 0 00.39 1.58 2.651 2.651 0 001.09 1.06 3.4 3.4 0 001.62.37 3.8 3.8 0 001.43-.26 3.064 3.064 0 001.13-.82l1.18 1.43a4.175 4.175 0 01-1.6 1.2 5.115 5.115 0 01-2.2.43z"/><path id="Tracé_27" data-name="Tracé 27" d="M442.7 191.22a4.418 4.418 0 012.02.46 3.31 3.31 0 011.4 1.42 5.222 5.222 0 01.51 2.46v5.68h-2.21v-5.38a2.88 2.88 0 00-.59-1.97 2.117 2.117 0 00-1.65-.65 2.817 2.817 0 00-1.38.33 2.234 2.234 0 00-.93.99 3.689 3.689 0 00-.33 1.66v5.01h-2.21v-9.92h2.1V194l-.37-.82a3.438 3.438 0 011.44-1.46 4.753 4.753 0 012.2-.5z"/><path id="Tracé_28" data-name="Tracé 28" d="M448 193.26v-1.86h6.28v1.86zm4.8 8.11a3.263 3.263 0 01-2.4-.84 3.406 3.406 0 01-.85-2.5v-8.89h2.21v8.84a1.61 1.61 0 00.34 1.1 1.215 1.215 0 00.96.39 1.863 1.863 0 001.23-.41l.62 1.65a2.611 2.611 0 01-.95.5 4.062 4.062 0 01-1.16.16z"/></g><g id="Marine" fill="#272a5f"><path id="Tracé_29" data-name="Tracé 29" d="M235.03 156.45a18.28 18.28 0 01-6.56-1.16 15.432 15.432 0 01-5.25-3.29 15.269 15.269 0 01-3.47-5.01 16.726 16.726 0 010-12.64 15.029 15.029 0 013.49-5.01 15.827 15.827 0 015.25-3.29 19.424 19.424 0 0113.75.22 13.973 13.973 0 015.38 4.03l-4.53 4.18a10.719 10.719 0 00-3.49-2.68 9.856 9.856 0 00-4.18-.89 10.592 10.592 0 00-3.92.7 8.955 8.955 0 00-3.09 2 9.176 9.176 0 00-2.03 3.09 11.305 11.305 0 000 7.94 9.028 9.028 0 002.03 3.09 8.814 8.814 0 003.09 2 10.592 10.592 0 003.92.7 9.823 9.823 0 004.18-.89 10.332 10.332 0 003.49-2.72l4.53 4.18a14.2 14.2 0 01-5.38 4.05 17.868 17.868 0 01-7.21 1.4z"/><path id="Tracé_30" data-name="Tracé 30" d="M251.9 155.93v-23.45h6.49v6.63l-.92-1.92a7.55 7.55 0 013.36-3.77 11.363 11.363 0 015.62-1.29v6.28c-.29-.03-.55-.05-.78-.07s-.48-.02-.74-.02a6.386 6.386 0 00-4.51 1.59q-1.725 1.59-1.72 4.95v11.07z"/><path id="Tracé_31" data-name="Tracé 31" d="M281.45 156.27a13.727 13.727 0 01-6.65-1.57 12.05 12.05 0 01-4.58-4.29 11.857 11.857 0 014.58-16.73 14.976 14.976 0 0113.27 0 11.89 11.89 0 010 21.03 13.8 13.8 0 01-6.62 1.56zm0-5.58a5.993 5.993 0 003.05-.78 5.638 5.638 0 002.14-2.24 8.131 8.131 0 000-6.95 5.582 5.582 0 00-2.14-2.22 6.353 6.353 0 00-6.1 0 5.766 5.766 0 00-2.16 2.22 7.859 7.859 0 000 6.95 5.753 5.753 0 002.16 2.24 5.967 5.967 0 003.05.78z"/><path id="Tracé_32" data-name="Tracé 32" d="M298.84 155.93v-23.45h6.8v23.45z"/><path id="Tracé_33" data-name="Tracé 33" d="M319.85 156.27a22.943 22.943 0 01-5.78-.72 14.117 14.117 0 01-4.38-1.81l2.27-4.88a14.976 14.976 0 003.81 1.63 15.713 15.713 0 004.34.63 7.036 7.036 0 003.33-.57 1.75 1.75 0 00.98-1.57 1.339 1.339 0 00-.76-1.24 6.579 6.579 0 00-2.03-.63c-.84-.14-1.77-.29-2.77-.44a30.514 30.514 0 01-3.03-.59 10.43 10.43 0 01-2.79-1.11 5.719 5.719 0 01-2.03-2 6.233 6.233 0 01-.76-3.27 6.3 6.3 0 011.29-3.92 8.512 8.512 0 013.73-2.68 15.721 15.721 0 015.84-.98 23.484 23.484 0 014.88.52 13.166 13.166 0 014.14 1.53l-2.27 4.84a11.194 11.194 0 00-3.42-1.37 15.651 15.651 0 00-3.33-.37 6.8 6.8 0 00-3.31.61 1.8 1.8 0 00-1.05 1.57 1.413 1.413 0 00.76 1.31 7.124 7.124 0 002.03.7c.84.17 1.76.33 2.77.46a25.683 25.683 0 013.03.59 10.844 10.844 0 012.77 1.11 5.854 5.854 0 012.03 1.96 5.949 5.949 0 01.78 3.25 6.13 6.13 0 01-1.31 3.86 8.587 8.587 0 01-3.77 2.64 17 17 0 01-5.99.94z"/><path id="Tracé_34" data-name="Tracé 34" d="M342.99 156.27a22.943 22.943 0 01-5.78-.72 14.117 14.117 0 01-4.38-1.81l2.27-4.88a14.976 14.976 0 003.81 1.63 15.713 15.713 0 004.34.63 7.036 7.036 0 003.33-.57 1.75 1.75 0 00.98-1.57 1.339 1.339 0 00-.76-1.24 6.579 6.579 0 00-2.03-.63c-.84-.14-1.77-.29-2.77-.44a30.514 30.514 0 01-3.03-.59 10.43 10.43 0 01-2.79-1.11 5.719 5.719 0 01-2.03-2 6.233 6.233 0 01-.76-3.27 6.3 6.3 0 011.29-3.92 8.512 8.512 0 013.73-2.68 15.721 15.721 0 015.84-.98 23.484 23.484 0 014.88.52 13.166 13.166 0 014.14 1.53l-2.27 4.84a11.194 11.194 0 00-3.42-1.37 15.651 15.651 0 00-3.33-.37 6.8 6.8 0 00-3.31.61 1.8 1.8 0 00-1.05 1.57 1.413 1.413 0 00.76 1.31 7.124 7.124 0 002.03.7c.84.17 1.76.33 2.77.46a25.683 25.683 0 013.03.59 10.844 10.844 0 012.77 1.11 5.854 5.854 0 012.03 1.96 5.949 5.949 0 01.78 3.25 6.13 6.13 0 01-1.31 3.86 8.587 8.587 0 01-3.77 2.64 17 17 0 01-5.99.94z"/><path id="Tracé_35" data-name="Tracé 35" d="M365.48 156.27a10.782 10.782 0 01-4.71-.94 7.093 7.093 0 01-3.01-2.55 6.474 6.474 0 01-1.05-3.62 6.583 6.583 0 011.02-3.66 6.65 6.65 0 013.25-2.46 15.671 15.671 0 015.8-.89h6.23v3.97h-5.49a5.117 5.117 0 00-3.29.78 2.517 2.517 0 00-.89 1.96 2.452 2.452 0 001.02 2.07 4.6 4.6 0 002.81.76 5.821 5.821 0 003.05-.81 4.641 4.641 0 001.96-2.38l1.05 3.14a6.063 6.063 0 01-2.7 3.44 9.535 9.535 0 01-5.05 1.19zm7.15-.34v-4.58l-.44-1v-8.19a4.371 4.371 0 00-1.33-3.4 5.876 5.876 0 00-4.07-1.22 11.855 11.855 0 00-3.68.59 9.575 9.575 0 00-3.07 1.59l-2.44-4.75a14.66 14.66 0 014.62-2.09 20.815 20.815 0 015.49-.74q5.355 0 8.33 2.53 2.955 2.535 2.96 7.89v13.38l-6.37-.01z"/><path id="Tracé_36" data-name="Tracé 36" d="M399.39 132.13a10.934 10.934 0 014.99 1.11 7.991 7.991 0 013.46 3.4 12.086 12.086 0 011.26 5.86v13.42h-6.8v-12.38a6 6 0 00-1.24-4.18 4.536 4.536 0 00-3.51-1.35 6.172 6.172 0 00-2.9.68 4.611 4.611 0 00-2 2.07 7.764 7.764 0 00-.72 3.57v11.59h-6.8v-23.45h6.49v6.49L390.4 137a8.713 8.713 0 013.62-3.62 11.317 11.317 0 015.37-1.25z"/><path id="Tracé_37" data-name="Tracé 37" d="M426.76 156.27a14.425 14.425 0 01-6.76-1.55 11.584 11.584 0 01-4.64-4.29 11.81 11.81 0 014.64-16.75 14.4 14.4 0 016.76-1.55 12.937 12.937 0 016.45 1.55 9.443 9.443 0 014.05 4.42l-5.27 2.83a6.1 6.1 0 00-2.29-2.44 5.957 5.957 0 00-2.99-.78 6.332 6.332 0 00-3.14.78 5.659 5.659 0 00-2.2 2.22 7.924 7.924 0 000 6.98 5.659 5.659 0 002.2 2.22 6.332 6.332 0 003.14.78 6.071 6.071 0 002.99-.76 5.9 5.9 0 002.29-2.46l5.27 2.88a9.446 9.446 0 01-4.05 4.38 12.934 12.934 0 01-6.45 1.54z"/><path id="Tracé_38" data-name="Tracé 38" d="M452.52 156.27a15.062 15.062 0 01-7.04-1.57 11.585 11.585 0 01-4.68-4.29 12.619 12.619 0 01-.03-12.46 11.545 11.545 0 014.47-4.27 13.984 13.984 0 0112.62-.09 11 11 0 014.38 4.18 12.634 12.634 0 011.61 6.52c0 .26-.01.56-.04.89s-.06.65-.09.94h-19.05v-3.97h15.47l-2.62 1.18a6.553 6.553 0 00-.74-3.18 5.336 5.336 0 00-2.05-2.11 5.927 5.927 0 00-3.05-.76 6.027 6.027 0 00-3.07.76 5.268 5.268 0 00-2.07 2.14 6.809 6.809 0 00-.74 3.25v1.05a6.579 6.579 0 00.85 3.38 5.6 5.6 0 002.4 2.22 8.1 8.1 0 003.64.76 8.752 8.752 0 003.29-.57 7.964 7.964 0 002.59-1.7l3.62 3.92a10.5 10.5 0 01-4.05 2.81 15.042 15.042 0 01-5.62.97z"/></g></g></svg>